<?xml version="1.0" encoding="UTF-8"?>
<svg id="Layer_2" data-name="Layer 2" xmlns="http://www.w3.org/2000/svg" viewBox="0 0 371.57 317.74">
  <defs>
    <style>
      .cls-1 {
        fill: #192043;
        stroke-width: 0px;
      }
    </style>
  </defs>
  <g id="Layer_1-2" data-name="Layer 1">
    <g>
      <path class="cls-1" d="m368.35,146.71c0,4.38-3.43,7.81-7.9,7.81s-7.95-3.43-7.95-7.81,3.53-7.72,7.95-7.72,7.9,3.43,7.9,7.72Zm-13.88,0c0,3.43,2.54,6.16,6.02,6.16s5.88-2.73,5.88-6.12-2.49-6.21-5.93-6.21-5.98,2.78-5.98,6.16Zm4.75,4.05h-1.79v-7.72c.71-.14,1.69-.24,2.96-.24,1.46,0,2.12.24,2.68.56.42.33.75.94.75,1.69,0,.85-.66,1.51-1.6,1.79v.09c.75.28,1.18.85,1.41,1.88.24,1.18.38,1.65.56,1.93h-1.93c-.24-.28-.38-.99-.61-1.88-.14-.85-.61-1.22-1.6-1.22h-.85v3.11Zm.05-4.38h.85c.99,0,1.79-.33,1.79-1.13,0-.71-.52-1.18-1.65-1.18-.47,0-.8.05-.99.09v2.21Z"/>
      <g>
        <path class="cls-1" d="m310.76,172.04l57.25-56.29c2.02-1.98,2.04-5.23.06-7.25l-35.14-35.74c-1.98-2.02-5.23-2.04-7.24-.06l-57.61,56.65,42.69,42.69Z"/>
        <path class="cls-1" d="m170.81,72.44c-2-2-5.24-2-7.25,0l-35.44,35.44c-2,2-2,5.25,0,7.25l76.56,76.56s-43.96,43.22-43.96,43.22c-9.49,9.33-19.28,17.24-32.46,20.43-12.09,2.93-25.46,2.54-37.11-2.04-18.28-7.18-30.79-25.09-30.79-44.79v-73.53h42.59c2.76,0,5-2.24,5-5v-56c0-2.76-2.24-5-5-5h-42.59V5.12c0-2.83-2.29-5.12-5.12-5.12H5.12C2.29,0,0,2.29,0,5.12v203.39c0,32.45,14.95,63.7,40.09,84.19,27.02,22.01,63.66,29.24,97.57,22.73,12.19-2.34,24.1-6.53,34.81-12.85,11.32-6.69,21.23-15.44,30.58-24.63l44.32-43.58,80.01,80.01c2,2,5.24,2,7.25,0l35.44-35.44c2-2,2-5.24,0-7.25L170.81,72.44Z"/>
      </g>
    </g>
  </g>
</svg>